<svg id="UD_Color" data-name="UD Color" xmlns="http://www.w3.org/2000/svg" xmlns:xlink="http://www.w3.org/1999/xlink" viewBox="0 0 364 308.56"><defs><style>.cls-1{fill:url(#linear-gradient);}.cls-2{fill:url(#linear-gradient-2);}.cls-3{fill:url(#linear-gradient-3);}.cls-4{fill:url(#linear-gradient-4);}.cls-5{fill:url(#linear-gradient-5);}.cls-6{fill:url(#linear-gradient-6);}.cls-7{fill:url(#linear-gradient-7);}</style><linearGradient id="linear-gradient" x1="140.73" y1="47.94" x2="140.73" y2="236.66" gradientUnits="userSpaceOnUse"><stop offset="0" stop-color="#eec04a"/><stop offset="1" stop-color="#e5914d"/></linearGradient><linearGradient id="linear-gradient-2" x1="164.33" y1="213.07" x2="164.33" y2="47.94" xlink:href="#linear-gradient"/><linearGradient id="linear-gradient-3" x1="93.55" y1="142.91" x2="93.57" y2="142.91" gradientUnits="userSpaceOnUse"><stop offset="0" stop-color="#c7e3fd"/><stop offset="1" stop-color="#8fc5fc"/></linearGradient><linearGradient id="linear-gradient-4" x1="313.72" y1="173.75" x2="125.01" y2="173.75" gradientUnits="userSpaceOnUse"><stop offset="0" stop-color="#69b7e9"/><stop offset="1" stop-color="#4773b2"/></linearGradient><linearGradient id="linear-gradient-5" x1="172.48" y1="174.96" x2="172.48" y2="238.57" xlink:href="#linear-gradient-4"/><linearGradient id="linear-gradient-6" x1="242.95" y1="71.14" x2="242.95" y2="224.57" xlink:href="#linear-gradient-4"/><linearGradient id="linear-gradient-7" x1="232.65" y1="287.23" x2="232.65" y2="190.96" xlink:href="#linear-gradient-4"/></defs><title>Favicon-UD</title><path class="cls-1" d="M235.09,47.94H187.91V142.3a47.17,47.17,0,0,1-45.12,47.13c-26.93,1.16-49.24-20.76-49.24-47.71V48s0-.05,0-.05H46.42s0,0,0,.05V142.3a94.37,94.37,0,0,0,92.45,94.34c52.93,1,96.26-42.26,96.26-95.2V95.12c0-1.32-.06-2.63-.17-3.93h.17Z"/><path class="cls-2" d="M235.09,47.94V142.3c0,.61,0,1.22,0,1.83a70.77,70.77,0,0,1-141.5-.61,47.18,47.18,0,0,0,94.34-1.22V47.94Z"/><path class="cls-3" d="M93.55,142.3c0,.41,0,.81,0,1.22C93.56,143.11,93.55,142.71,93.55,142.3Z"/><path class="cls-4" d="M218.5,268.11H125.05a0,0,0,0,1,0,0V235.35a94.65,94.65,0,0,0,15.72,1.31,96.08,96.08,0,0,0,52.17-15.73h25.89c27,0,48.86-22.31,47.71-49.24a47.17,47.17,0,0,0-47.14-45.12h-38.9a8.28,8.28,0,0,0-8.28,8.28v42.62A47.21,47.21,0,0,1,125,186.79V79.4h94.35a94.36,94.36,0,0,1,94.34,92.45C314.74,224.78,271.45,268.11,218.5,268.11Z"/><path class="cls-5" d="M210.76,267.32a47.34,47.34,0,0,1-37.54-36.51,92.67,92.67,0,0,1-12.16,3.65,95,95,0,0,1-36,.89v32.72a0,0,0,0,0,0,0H220A69.75,69.75,0,0,1,210.76,267.32Z"/><path class="cls-6" d="M238.69,266a70.78,70.78,0,0,0-17.36-139.39H180.46a8.28,8.28,0,0,0-8.07,6.45c-.14-1.47-.21-3-.21-4.48a49.14,49.14,0,0,1,48.39-49.13h.05q2.9,0,5.73.24h0a94.37,94.37,0,0,1,87.33,92.2C314.61,217.86,282,256.61,238.69,266Z"/><path class="cls-7" d="M292.09,197.34A70.78,70.78,0,0,1,238.69,266,96,96,0,0,1,221,268.08h-1a69.75,69.75,0,0,1-9.2-.77,47.34,47.34,0,0,1-37.54-36.51,90.73,90.73,0,0,0,19.32-9.88h26.25a47.94,47.94,0,0,0,41.38-23.69,46.49,46.49,0,0,0,6.33-25.55,47.16,47.16,0,0,0-46.27-45.11h1.1a70.76,70.76,0,0,1,70.76,70.77Z"/></svg>