<svg id="UD_Blanco" data-name="UD Blanco" xmlns="http://www.w3.org/2000/svg" xmlns:xlink="http://www.w3.org/1999/xlink" viewBox="0 0 1000 347.21"><defs><style>.cls-1{fill:#fff;}.cls-2{fill:url(#linear-gradient);}.cls-3{fill:url(#linear-gradient-2);}.cls-4{fill:url(#linear-gradient-3);}.cls-5{fill:url(#linear-gradient-4);}.cls-6{fill:url(#linear-gradient-5);}.cls-7{fill:url(#linear-gradient-6);}.cls-8{fill:url(#linear-gradient-7);}</style><linearGradient id="linear-gradient" x1="138.84" y1="39.34" x2="138.84" y2="263.44" gradientUnits="userSpaceOnUse"><stop offset="0" stop-color="#fff"/><stop offset="1" stop-color="#b4b4b4"/></linearGradient><linearGradient id="linear-gradient-2" x1="166.86" y1="235.43" x2="166.86" y2="39.34" xlink:href="#linear-gradient"/><linearGradient id="linear-gradient-3" x1="82.82" y1="152.11" x2="82.83" y2="152.11" xlink:href="#linear-gradient"/><linearGradient id="linear-gradient-4" x1="344.27" y1="188.74" x2="120.17" y2="188.74" xlink:href="#linear-gradient"/><linearGradient id="linear-gradient-5" x1="176.55" y1="190.17" x2="176.55" y2="265.72" xlink:href="#linear-gradient"/><linearGradient id="linear-gradient-6" x1="260.23" y1="66.89" x2="260.23" y2="249.08" xlink:href="#linear-gradient"/><linearGradient id="linear-gradient-7" x1="248" y1="323.5" x2="248" y2="209.18" xlink:href="#linear-gradient"/></defs><title>IMG_UltraDiagnostik-BW</title><path class="cls-1" d="M686,300.82l-5.17-9.5h-2v9.5h-5.68V276.88h9.13c4.6,0,9.17,1.76,9.17,7.24a6.52,6.52,0,0,1-5,6.46l6.25,10.24Zm-4.09-19.27h-3.08v5.58h2.74c1.86,0,4.19-.47,4.19-2.91C685.77,282,683.64,281.55,681.92,281.55Z"/><path class="cls-1" d="M720.3,300.82l-1.86-4.7h-9.27l-1.76,4.7h-6.29l10-23.94h5.61l9.94,23.94Zm-6.43-17.54-3,8.21h6Z"/><path class="cls-1" d="M746.1,300.82h-8.93V276.88h8.66c6.79,0,13.69,2.84,13.69,11.91C759.52,297.21,752.69,300.82,746.1,300.82Zm-.41-19h-2.87v14h2.74c4.12,0,7.94-1.69,7.94-7S749.68,281.82,745.69,281.82Z"/><path class="cls-1" d="M771.79,300.82V276.88h5.82v23.94Z"/><path class="cls-1" d="M802.9,301.47c-7.47,0-13-5.14-13-12.72s5.55-12.51,13-12.51S816,281.08,816,288.75,810.41,301.47,802.9,301.47Zm0-20c-4,0-6.83,3.11-6.83,7.3s2.81,7.44,6.83,7.44,6.87-3.11,6.87-7.44S807,281.45,802.9,281.45Z"/><path class="cls-1" d="M828.23,300.82V276.88H834v18.91h9.27v5Z"/><path class="cls-1" d="M865.36,301.47c-7.48,0-13-5.14-13-12.72s5.54-12.51,13-12.51,13,4.84,13,12.51S872.86,301.47,865.36,301.47Zm0-20c-4.06,0-6.83,3.11-6.83,7.3s2.8,7.44,6.83,7.44,6.86-3.11,6.86-7.44S869.41,281.45,865.36,281.45Z"/><path class="cls-1" d="M902.72,301.43c-7.64,0-13.15-5.07-13.15-12.61s5.68-12.58,13-12.58c3.76,0,7.24,1.25,9.23,3.18l-3.65,4.16a7.09,7.09,0,0,0-5.38-2.23c-4,0-7,3.18-7,7.47s2.61,7.54,7.3,7.54a9.18,9.18,0,0,0,3.62-.64v-4.36h-4.56v-4.67H912v12.68A20.19,20.19,0,0,1,902.72,301.43Z"/><path class="cls-1" d="M929.33,275h-4.19l3.52-4.87h5.61Zm-4.19,25.83V276.88H931v23.94Z"/><path class="cls-1" d="M960.58,300.82l-1.86-4.7h-9.27l-1.76,4.7H941.4l10.05-23.94h5.61L967,300.82Zm-6.43-17.54-3,8.21h6Z"/><rect class="cls-1" x="405.74" y="234.18" width="557.54" height="1.41"/><path class="cls-2" d="M250.89,39.34h-56v112a56,56,0,0,1-53.58,56c-32,1.38-58.47-24.65-58.47-56.65V39.39a.05.05,0,0,0,0,0H26.84a0,0,0,0,0-.05,0v112a112,112,0,0,0,109.79,112c62.86,1.24,114.31-50.18,114.31-113v-55c0-1.58-.07-3.13-.19-4.67h.19Z"/><path class="cls-3" d="M250.89,39.34v112c0,.73,0,1.45,0,2.17a84,84,0,0,1-168-.72,56,56,0,0,0,112-1.45v-112Z"/><path class="cls-4" d="M82.82,151.39c0,.48,0,1,0,1.45C82.82,152.36,82.82,151.87,82.82,151.39Z"/><path class="cls-5" d="M231.19,300.79h-111a0,0,0,0,1,0-.05V261.89a112.62,112.62,0,0,0,18.67,1.55,114.13,114.13,0,0,0,62-18.67h30.73c32,0,58-26.5,56.66-58.48a55.95,55.95,0,0,0-56-53.57H186a9.83,9.83,0,0,0-9.83,9.82v50.61a56.08,56.08,0,0,1-56,11.08V76.69H232.22a112.06,112.06,0,0,1,112,109.79C345.49,249.34,294.07,300.79,231.19,300.79Z"/><path class="cls-6" d="M222,299.86a56.22,56.22,0,0,1-44.58-43.36A109.82,109.82,0,0,1,163,260.83a113.06,113.06,0,0,1-42.81,1.06v38.85a0,0,0,0,0,0,.05H232.93A85.39,85.39,0,0,1,222,299.86Z"/><path class="cls-7" d="M255.17,298.24a84,84,0,0,0-20.62-165.52H186a9.82,9.82,0,0,0-9.58,7.65c-.17-1.75-.25-3.52-.25-5.32A58.35,58.35,0,0,1,233.65,76.7h.07q3.42,0,6.8.29h0A112.06,112.06,0,0,1,344.25,186.48C345.33,241.12,306.61,287.14,255.17,298.24Z"/><path class="cls-8" d="M318.59,216.75a84.08,84.08,0,0,1-63.42,81.49,114.19,114.19,0,0,1-21.07,2.52h0l-1.16,0a85.39,85.39,0,0,1-10.93-.92,56.22,56.22,0,0,1-44.58-43.36,108,108,0,0,0,23-11.73h31.16a56.92,56.92,0,0,0,49.14-28.14,55.06,55.06,0,0,0,7.52-30.34,55.94,55.94,0,0,0-54.94-53.56h1.3a84,84,0,0,1,84,84Z"/><path class="cls-1" d="M423.64,106.65c-11.18,0-18.16-7-18.16-17.19V63H415.7V88.61c0,4.57,2.23,8.78,8,8.78s8-4.21,8-8.78V63H442V89.46C442,99.68,434.76,106.65,423.64,106.65Z"/><path class="cls-1" d="M465.3,105.51V63h10.34v33.6h16.47v9Z"/><path class="cls-1" d="M525.41,71.73v33.78H515.13V71.73h-12V63h34.32v8.78Z"/><path class="cls-1" d="M579.93,105.51l-9.19-16.9h-3.49v16.9h-10.1V63h16.23c8.18,0,16.29,3.12,16.29,12.86,0,5.71-3.36,9.8-8.83,11.48L592,105.51Zm-7.27-34.27h-5.47v9.92h4.87c3.31,0,7.45-.84,7.45-5.17C579.51,72,575.73,71.24,572.66,71.24Z"/><path class="cls-1" d="M640.89,105.51l-3.31-8.36H621.11L618,105.51H606.81L624.66,63h10l17.67,42.56Zm-11.42-31.2-5.41,14.61h10.7Z"/><path class="cls-1" d="M467.28,148.83h14.13c10.64,0,22.36,7.09,22.36,21.28s-11.72,21.27-22.36,21.27H467.28Zm4.33,38.71h8.6c12.8,0,19-8.66,19-17.43s-6.19-17.43-19-17.43h-8.6Z"/><path class="cls-1" d="M532.15,191.38h-4.33V148.83h4.33Z"/><path class="cls-1" d="M558.18,191.38h-4.75l18.39-42.55H576l18.27,42.55h-4.81L584.8,180.2h-22Zm6.25-15.14h18.75l-9.38-22.6Z"/><path class="cls-1" d="M646.78,156.46c-2.94-3.12-7-4.93-12.32-4.93-10.94,0-17.67,8.66-17.67,18.58s6.73,18.51,17.67,18.51c4.81,0,9-1.14,11.48-2.77V172.93H636v-3.79h14.25v19.18a30.86,30.86,0,0,1-15.87,4.15c-12.86,0-22.18-9.44-22.18-22.36s9.5-22.36,22.18-22.36c6.73,0,11.78,2.16,15.39,5.71Z"/><path class="cls-1" d="M706.54,185.07h.12V148.83H711v42.55h-5.41l-24.76-36.6h-.12v36.6h-4.33V148.83h5.41Z"/><path class="cls-1" d="M757.21,192.47c-12.68,0-22.17-9.44-22.17-22.36s9.49-22.36,22.17-22.36,22.18,9.43,22.18,22.36S769.9,192.47,757.21,192.47Zm0-40.94c-10.94,0-17.61,8.66-17.61,18.58s6.67,18.51,17.61,18.51,17.62-8.6,17.62-18.51S768.15,151.53,757.21,151.53Z"/><path class="cls-1" d="M824.06,155.68a10.22,10.22,0,0,0-8.77-4.27c-4.21,0-9.08,2.53-9.08,8s4.51,6.79,9.26,8.35c6,2,12.62,3.91,12.62,12.44s-7.15,12.27-13.89,12.27c-5.16,0-10.33-2.11-13.4-6.32l3.73-2.76a11.31,11.31,0,0,0,9.73,5.35c4.39,0,9.44-2.77,9.44-8.24,0-5.95-5-7.45-10.4-9.13-5.65-1.74-11.42-4.21-11.42-11.9,0-8.24,7.34-11.72,13.59-11.72,5.71,0,10,2.4,12,5.17Z"/><path class="cls-1" d="M864.94,191.38h-4.33v-38.7H846.37v-3.85h32.82v3.85H864.94Z"/><path class="cls-1" d="M904.92,191.38h-4.33V148.83h4.33Z"/><path class="cls-1" d="M935.58,167.94h.06l20.25-19.11h6.19l-21.45,19.29,22.66,23.26h-6.38l-21.27-22.66h-.06v22.66h-4.33V148.83h4.33Z"/></svg>