<svg id="UD_Blanco" data-name="UD Blanco" xmlns="http://www.w3.org/2000/svg" xmlns:xlink="http://www.w3.org/1999/xlink" viewBox="0 0 1353.94 347.21"><defs><style>.cls-1{fill:url(#linear-gradient);}.cls-2{fill:url(#linear-gradient-2);}.cls-3{fill:url(#linear-gradient-3);}.cls-4{fill:url(#linear-gradient-4);}.cls-5{fill:url(#linear-gradient-5);}.cls-6{fill:url(#linear-gradient-6);}.cls-7{fill:url(#linear-gradient-7);}.cls-8{fill:#fff;}</style><linearGradient id="linear-gradient" x1="176.22" y1="54.35" x2="176.22" y2="252.82" gradientUnits="userSpaceOnUse"><stop offset="0" stop-color="#fff"/><stop offset="1" stop-color="#b4b4b4"/></linearGradient><linearGradient id="linear-gradient-2" x1="201.04" y1="228.01" x2="201.04" y2="54.35" xlink:href="#linear-gradient"/><linearGradient id="linear-gradient-3" x1="126.6" y1="154.22" x2="126.62" y2="154.22" xlink:href="#linear-gradient"/><linearGradient id="linear-gradient-4" x1="358.15" y1="186.66" x2="159.68" y2="186.66" xlink:href="#linear-gradient"/><linearGradient id="linear-gradient-5" x1="209.61" y1="187.92" x2="209.61" y2="254.83" xlink:href="#linear-gradient"/><linearGradient id="linear-gradient-6" x1="283.73" y1="78.74" x2="283.73" y2="240.1" xlink:href="#linear-gradient"/><linearGradient id="linear-gradient-7" x1="272.9" y1="306" x2="272.9" y2="204.76" xlink:href="#linear-gradient"/></defs><title>UltraDiagnostik-LargeBW</title><path class="cls-1" d="M275.46,54.35H225.84v99.23a49.61,49.61,0,0,1-47.45,49.57c-28.32,1.22-51.79-21.83-51.79-50.18V54.39a0,0,0,0,0,0,0H77a0,0,0,0,0,0,0v99.19a99.24,99.24,0,0,0,97.23,99.22c55.67,1.1,101.24-44.44,101.24-100.13V104c0-1.39-.06-2.77-.18-4.13h.18Z"/><path class="cls-2" d="M275.46,54.35v99.23q0,1,0,1.92a74.42,74.42,0,0,1-148.81-.64,49.62,49.62,0,0,0,99.22-1.28V54.35Z"/><path class="cls-3" d="M126.6,153.58c0,.43,0,.85,0,1.28C126.61,154.44,126.6,154,126.6,153.58Z"/><path class="cls-4" d="M258,285.89H159.72a0,0,0,0,1,0,0V251.44a99.07,99.07,0,0,0,16.54,1.38,101.1,101.1,0,0,0,54.87-16.54h27.22c28.35,0,51.4-23.47,50.18-51.79A49.59,49.59,0,0,0,258.92,137H218a8.71,8.71,0,0,0-8.7,8.7v44.82a49.65,49.65,0,0,1-49.62,9.81V87.42h99.24a99.23,99.23,0,0,1,99.21,97.24C359.23,240.33,313.69,285.89,258,285.89Z"/><path class="cls-5" d="M249.87,285.07a49.82,49.82,0,0,1-39.49-38.4,97.67,97.67,0,0,1-12.78,3.83,99.73,99.73,0,0,1-37.92.94v34.41a0,0,0,0,0,0,0h99.83A75.07,75.07,0,0,1,249.87,285.07Z"/><path class="cls-6" d="M279.25,283.64A74.44,74.44,0,0,0,261,137H218a8.7,8.7,0,0,0-8.48,6.78c-.15-1.55-.22-3.12-.22-4.71a51.69,51.69,0,0,1,50.88-51.68h.06c2,0,4,.12,6,.26h0a99.25,99.25,0,0,1,91.84,97C359.09,233.05,324.8,273.81,279.25,283.64Z"/><path class="cls-7" d="M335.41,211.47a74.46,74.46,0,0,1-56.16,72.17,100.74,100.74,0,0,1-18.67,2.22h0l-1,0a75.07,75.07,0,0,1-9.68-.81,49.82,49.82,0,0,1-39.49-38.4,95.74,95.74,0,0,0,20.33-10.39h27.6a50.42,50.42,0,0,0,43.52-24.92,48.83,48.83,0,0,0,6.66-26.87,49.58,49.58,0,0,0-48.66-47.44H261a74.43,74.43,0,0,1,74.43,74.43Z"/><path class="cls-8" d="M454.75,138c-17,0-27.66-10.62-27.66-26.19V71.45h15.57v39.11c0,7,3.39,13.37,12.18,13.37S467,117.52,467,110.56V71.45h15.66v40.39C482.68,127.41,471.69,138,454.75,138Z"/><path class="cls-8" d="M518.22,136.29V71.45H534v51.2h25.09v13.64Z"/><path class="cls-8" d="M609.81,84.83v51.46H594.15V84.83H575.84V71.45h52.29V84.83Z"/><path class="cls-8" d="M692.88,136.29l-14-25.73h-5.31v25.73H658.18V71.45H682.9c12.46,0,24.82,4.77,24.82,19.6,0,8.7-5.13,14.93-13.46,17.49l16.94,27.75ZM681.8,84.09h-8.33V99.2h7.42c5,0,11.35-1.28,11.35-7.87C692.24,85.28,686.47,84.09,681.8,84.09Z"/><path class="cls-8" d="M785.76,136.29l-5-12.73H755.63l-4.77,12.73h-17L761,71.45h15.2l26.93,64.84Zm-17.4-47.53L760.11,111h16.3Z"/><path class="cls-8" d="M521.25,202.3h21.52c16.21,0,34.07,10.8,34.07,32.42S559,267.14,542.77,267.14H521.25Zm6.59,59h13.1c19.5,0,28.94-13.19,28.94-26.56s-9.44-26.56-28.94-26.56h-13.1Z"/><path class="cls-8" d="M620.07,267.14h-6.59V202.3h6.59Z"/><path class="cls-8" d="M659.73,267.14H652.5l28-64.84h6.41l27.84,64.84h-7.33l-7.14-17H666.78Zm9.53-23.08h28.57l-14.29-34.44Z"/><path class="cls-8" d="M794.73,213.93c-4.48-4.76-10.71-7.51-18.77-7.51-16.67,0-26.92,13.19-26.92,28.3s10.25,28.2,26.92,28.2c7.33,0,13.74-1.74,17.49-4.21V239H778.34v-5.77H800v29.21a46.83,46.83,0,0,1-24.17,6.32c-19.6,0-33.79-14.37-33.79-34.06s14.46-34.07,33.79-34.07c10.25,0,18,3.3,23.44,8.7Z"/><path class="cls-8" d="M885.77,257.52H886V202.3h6.59v64.84h-8.24l-37.73-55.77h-.18v55.77h-6.6V202.3H848Z"/><path class="cls-8" d="M963,268.78c-19.33,0-33.79-14.37-33.79-34.06s14.46-34.07,33.79-34.07,33.79,14.38,33.79,34.07S982.31,268.78,963,268.78Zm0-62.36c-16.67,0-26.83,13.19-26.83,28.3s10.16,28.2,26.83,28.2,26.83-13.09,26.83-28.2S979.65,206.42,963,206.42Z"/><path class="cls-8" d="M1064.84,212.74c-2.75-3.94-7.24-6.5-13.37-6.5-6.41,0-13.83,3.84-13.83,12.18s6.87,10.34,14.1,12.73c9.16,3,19.23,5.95,19.23,18.95s-10.9,18.68-21.15,18.68c-7.88,0-15.75-3.2-20.43-9.61l5.68-4.21a17.25,17.25,0,0,0,14.84,8.15c6.68,0,14.38-4.22,14.38-12.55,0-9.07-7.6-11.36-15.85-13.92-8.6-2.65-17.4-6.41-17.4-18.13,0-12.55,11.18-17.86,20.7-17.86,8.7,0,15.2,3.66,18.32,7.88Z"/><path class="cls-8" d="M1127.12,267.14h-6.59v-59h-21.71V202.3h50v5.86h-21.71Z"/><path class="cls-8" d="M1188,267.14h-6.59V202.3H1188Z"/><path class="cls-8" d="M1234.74,231.42h.09l30.86-29.12h9.44l-32.7,29.4L1277,267.14h-9.71l-32.42-34.53h-.09v34.53h-6.59V202.3h6.59Z"/></svg>