<svg id="UD_Blanco" data-name="UD Blanco" xmlns="http://www.w3.org/2000/svg" xmlns:xlink="http://www.w3.org/1999/xlink" viewBox="0 0 1124.76 347.21"><defs><style>.cls-1{fill:#fff;}.cls-2{fill:url(#linear-gradient);}.cls-3{fill:url(#linear-gradient-2);}.cls-4{fill:url(#linear-gradient-3);}.cls-5{fill:url(#linear-gradient-4);}.cls-6{fill:url(#linear-gradient-5);}.cls-7{fill:url(#linear-gradient-6);}.cls-8{fill:url(#linear-gradient-7);}</style><linearGradient id="linear-gradient" x1="218.98" y1="33.39" x2="218.98" y2="273.14" gradientUnits="userSpaceOnUse"><stop offset="0" stop-color="#fff"/><stop offset="1" stop-color="#b4b4b4"/></linearGradient><linearGradient id="linear-gradient-2" x1="248.96" y1="243.18" x2="248.96" y2="33.39" xlink:href="#linear-gradient"/><linearGradient id="linear-gradient-3" x1="159.04" y1="154.04" x2="159.06" y2="154.04" xlink:href="#linear-gradient"/><linearGradient id="linear-gradient-4" x1="438.76" y1="193.23" x2="199" y2="193.23" xlink:href="#linear-gradient"/><linearGradient id="linear-gradient-5" x1="259.32" y1="194.76" x2="259.32" y2="275.58" xlink:href="#linear-gradient"/><linearGradient id="linear-gradient-6" x1="348.85" y1="62.86" x2="348.85" y2="257.78" xlink:href="#linear-gradient"/><linearGradient id="linear-gradient-7" x1="335.77" y1="337.4" x2="335.77" y2="215.09" xlink:href="#linear-gradient"/></defs><title>UltraDiagnostik-BW</title><path class="cls-1" d="M804.38,313.14,798.84,303h-2.09v10.17h-6.08V287.53h9.76c4.92,0,9.81,1.88,9.81,7.74a7,7,0,0,1-5.32,6.91l6.69,11ZM800,292.52h-3.29v6h2.93c2,0,4.48-.51,4.48-3.11C804.12,293,801.85,292.52,800,292.52Z"/><path class="cls-1" d="M841.06,313.14l-2-5h-9.91l-1.88,5h-6.73l10.74-25.61h6l10.63,25.61Zm-6.87-18.78-3.26,8.8h6.44Z"/><path class="cls-1" d="M868.66,313.14h-9.55V287.53h9.26c7.27,0,14.65,3,14.65,12.73C883,309.27,875.72,313.14,868.66,313.14Zm-.43-20.33h-3.08v15h2.93c4.42,0,8.51-1.81,8.51-7.53S872.5,292.81,868.23,292.81Z"/><path class="cls-1" d="M896.16,313.14V287.53h6.22v25.61Z"/><path class="cls-1" d="M929.44,313.83c-8,0-13.93-5.5-13.93-13.61s5.93-13.38,13.93-13.38,14,5.17,14,13.38S937.47,313.83,929.44,313.83Zm0-21.42c-4.34,0-7.31,3.33-7.31,7.81s3,8,7.31,8,7.34-3.33,7.34-8S933.78,292.41,929.44,292.41Z"/><path class="cls-1" d="M956.53,313.14V287.53h6.23v20.22h9.91v5.39Z"/><path class="cls-1" d="M996.25,313.83c-8,0-13.92-5.5-13.92-13.61s5.93-13.38,13.92-13.38,14,5.17,14,13.38S1004.29,313.83,996.25,313.83Zm0-21.42c-4.34,0-7.3,3.33-7.3,7.81s3,8,7.3,8,7.35-3.33,7.35-8S1000.6,292.41,996.25,292.41Z"/><path class="cls-1" d="M1036.23,313.79c-8.18,0-14.07-5.43-14.07-13.49,0-8.21,6.08-13.46,13.89-13.46,4,0,7.74,1.34,9.87,3.4l-3.9,4.45a7.59,7.59,0,0,0-5.75-2.39c-4.35,0-7.53,3.4-7.53,8s2.79,8.06,7.81,8.06a9.92,9.92,0,0,0,3.88-.68V303h-4.89v-5h10.57v13.56A21.61,21.61,0,0,1,1036.23,313.79Z"/><path class="cls-1" d="M1064.7,285.5h-4.48l3.76-5.21h6Zm-4.48,27.64V287.53h6.22v25.61Z"/><path class="cls-1" d="M1098.13,313.14l-2-5h-9.91l-1.89,5h-6.72l10.74-25.61h6L1105,313.14Zm-6.88-18.78-3.25,8.8h6.44Z"/><rect class="cls-1" x="504.53" y="241.84" width="596.5" height="1.51"/><path class="cls-2" d="M338.86,33.39H278.92V153.27a59.93,59.93,0,0,1-57.32,59.88C187.39,214.62,159,186.78,159,152.53V33.44a0,0,0,0,0,0,0H99.16a.06.06,0,0,0-.06,0V153.27A119.89,119.89,0,0,0,216.56,273.12c67.26,1.33,122.3-53.68,122.3-121V93.33c0-1.68-.07-3.35-.21-5h.21Z"/><path class="cls-3" d="M338.86,33.39V153.27c0,.77,0,1.55,0,2.32a89.9,89.9,0,0,1-179.76-.77,59.93,59.93,0,0,0,119.85-1.55V33.39Z"/><path class="cls-4" d="M159,153.27c0,.51,0,1,0,1.54C159.05,154.3,159,153.78,159,153.27Z"/><path class="cls-5" d="M317.78,313.1H199.05a.05.05,0,0,1-.05-.05V271.49a120.7,120.7,0,0,0,20,1.66,122.15,122.15,0,0,0,66.29-20h32.88c34.24,0,62.09-28.35,60.62-62.56a59.88,59.88,0,0,0-59.89-57.32H269.45a10.51,10.51,0,0,0-10.51,10.51v54.14A60,60,0,0,1,199,209.79V73.35H318.88A119.89,119.89,0,0,1,438.74,190.81C440.06,258.06,385.05,313.1,317.78,313.1Z"/><path class="cls-6" d="M308,312.11a60.18,60.18,0,0,1-47.7-46.39,118,118,0,0,1-15.44,4.63A120.77,120.77,0,0,1,199,271.49v41.56a.05.05,0,0,0,.05.05H319.64A91.68,91.68,0,0,1,308,312.11Z"/><path class="cls-7" d="M343.44,310.38a89.92,89.92,0,0,0-22.06-177.09H269.45a10.52,10.52,0,0,0-10.25,8.18c-.17-1.87-.26-3.77-.26-5.69a62.43,62.43,0,0,1,61.47-62.42.11.11,0,0,1,.08,0c2.44,0,4.86.14,7.27.31h0a119.88,119.88,0,0,1,111,117.13C439.89,249.27,398.47,298.5,343.44,310.38Z"/><path class="cls-8" d="M411.29,223.2a89.94,89.94,0,0,1-67.85,87.18,122.27,122.27,0,0,1-22.54,2.69h0l-1.25,0a91.68,91.68,0,0,1-11.69-1,60.18,60.18,0,0,1-47.7-46.39,115.35,115.35,0,0,0,24.56-12.55h33.34a60.9,60.9,0,0,0,52.57-30.1,59,59,0,0,0,8-32.46A59.88,59.88,0,0,0,320,133.3h1.39a89.92,89.92,0,0,1,89.91,89.91Z"/><path class="cls-1" d="M523.67,105.4c-12,0-19.42-7.46-19.42-18.4V58.65h10.94V86.1c0,4.89,2.38,9.39,8.55,9.39s8.55-4.5,8.55-9.39V58.65h11V87C543.29,97.94,535.57,105.4,523.67,105.4Z"/><path class="cls-1" d="M568.25,104.17V58.65h11.06V94.59h17.62v9.58Z"/><path class="cls-1" d="M632.56,68v36.13h-11V68H608.7V58.65h36.72V68Z"/><path class="cls-1" d="M690.89,104.17,681.05,86.1h-3.73v18.07h-10.8V58.65h17.36c8.75,0,17.43,3.34,17.43,13.76,0,6.11-3.6,10.48-9.45,12.28l11.89,19.48Zm-7.78-36.65h-5.85V78.13h5.21c3.54,0,8-.9,8-5.53C690.44,68.36,686.39,67.52,683.11,67.52Z"/><path class="cls-1" d="M756.11,104.17l-3.54-8.93H735l-3.34,8.93h-12l19.1-45.52h10.68l18.9,45.52ZM743.89,70.8,738.1,86.43h11.45Z"/><path class="cls-1" d="M570.37,150.52h15.11c11.38,0,23.92,7.59,23.92,22.77s-12.54,22.76-23.92,22.76H570.37ZM575,191.94h9.2c13.69,0,20.32-9.26,20.32-18.65s-6.63-18.65-20.32-18.65H575Z"/><path class="cls-1" d="M639.76,196.05h-4.62V150.52h4.62Z"/><path class="cls-1" d="M667.61,196.05h-5.08l19.68-45.53h4.5l19.55,45.53h-5.14l-5-12H672.56Zm6.69-16.2h20.06l-10-24.18Z"/><path class="cls-1" d="M762.41,158.69c-3.15-3.34-7.52-5.27-13.18-5.27-11.71,0-18.91,9.26-18.91,19.87s7.2,19.8,18.91,19.8c5.14,0,9.64-1.22,12.28-3V176.31H750.9v-4.05h15.24v20.51a32.92,32.92,0,0,1-17,4.44c-13.76,0-23.73-10.1-23.73-23.92s10.16-23.92,23.73-23.92c7.2,0,12.61,2.31,16.46,6.11Z"/><path class="cls-1" d="M826.34,189.3h.13V150.52h4.63v45.53h-5.79l-26.49-39.16h-.13v39.16h-4.63V150.52h5.78Z"/><path class="cls-1" d="M880.56,197.21c-13.57,0-23.73-10.1-23.73-23.92s10.16-23.92,23.73-23.92,23.73,10.09,23.73,23.92S894.13,197.21,880.56,197.21Zm0-43.79c-11.71,0-18.84,9.26-18.84,19.87s7.13,19.8,18.84,19.8,18.84-9.19,18.84-19.8S892.26,153.42,880.56,153.42Z"/><path class="cls-1" d="M952.08,157.86a10.91,10.91,0,0,0-9.39-4.57c-4.5,0-9.71,2.7-9.71,8.55s4.82,7.27,9.9,8.94c6.43,2.12,13.5,4.18,13.5,13.31s-7.65,13.12-14.85,13.12c-5.53,0-11.06-2.25-14.34-6.75l4-3a12.08,12.08,0,0,0,10.41,5.72c4.7,0,10.1-2.95,10.1-8.81,0-6.36-5.34-8-11.13-9.77-6-1.87-12.21-4.5-12.21-12.73,0-8.81,7.84-12.54,14.53-12.54,6.11,0,10.67,2.57,12.86,5.53Z"/><path class="cls-1" d="M995.81,196.05h-4.63V154.64H975.94v-4.12h35.11v4.12H995.81Z"/><path class="cls-1" d="M1038.58,196.05H1034V150.52h4.63Z"/><path class="cls-1" d="M1071.38,171h.07l21.67-20.45h6.62l-23,20.65L1101,196.05h-6.82l-22.76-24.24h-.07v24.24h-4.63V150.52h4.63Z"/></svg>